<svg width="70" height="70" viewBox="0 0 70 70" fill="none" xmlns="http://www.w3.org/2000/svg">
<circle cx="35" cy="35" r="35" fill="#8D7370"/>
<path d="M42.2 43.39V46H27.11V43.96L35.66 35.71C36.7 34.71 37.4 33.85 37.76 33.13C38.12 32.39 38.3 31.65 38.3 30.91C38.3 29.81 37.91 28.96 37.13 28.36C36.37 27.74 35.27 27.43 33.83 27.43C31.51 27.43 29.72 28.19 28.46 29.71L26.42 27.94C27.24 26.94 28.31 26.16 29.63 25.6C30.97 25.04 32.46 24.76 34.1 24.76C36.3 24.76 38.05 25.29 39.35 26.35C40.65 27.39 41.3 28.81 41.3 30.61C41.3 31.73 41.06 32.79 40.58 33.79C40.1 34.79 39.19 35.93 37.85 37.21L31.43 43.39H42.2Z" fill="white"/>
</svg>
